{"title":"Jaws 1975 BRRip x264 AAC-UNiQUE","uid":7503385,"size":2402067634,"categoryP":"video","categoryS":"movies","magnet":"?xt=urn:btih:f3334aa2eb56dc659d6121e71881698c74df7ee2&amp;dn=Jaws+1975+BRRip+x264+AAC-UNiQUE&amp;tr=udp%3A%2F%2Ftracker.openbittorrent.com%3A80&amp;tr=udp%3A%2F%2Fopen.demonii.com%3A1337&amp;tr=udp%3A%2F%2Ftracker.coppersurfer.tk%3A6969&amp;tr=udp%3A%2F%2Fexodus.desync.com%3A6969","seeders":1,"leechers":0,"uploader":"neon","files":-1,"time":1344091293,"description":"Storyline\n When a gigantic great white shark begins to menace the small island community of Amity, a police chief, a marine scientist and grizzled fisherman set out to stop it.\n \n &lt;a href=&quot; http://www.imdb.com/title/tt0073195/&quot; rel=&quot;nofollow&quot; target=&quot;_NEW&quot;&gt; http://www.imdb.com/title/tt0073195/&lt;/a&gt;\n\nComplete name : Jaws 1975 BRRip x264 AAC-UNiQUE.mp4\n Subtitle : English.srt included in folder\n Format : MPEG-4\n Format profile : Base Media\n Codec ID : isom\n File size : 2.20 GiB\n Duration : 2h 3mn\n Overall bit rate mode : Variable\n Overall bit rate : 2 542 Kbps\n Encoded date : UTC 2012-08-04 09:44:14\n \nVideo\n ID : 1\n Format : AVC\n Format/Info : Advanced Video Codec\n Format profile : &lt;a class=&quot;__cf_email__&quot; href=&quot;/cdn-cgi/l/email-protection&quot; data-cfemail=&quot;276f4e404f676b130916&quot;&gt;[email&amp;#160;protected]&lt;/a&gt;&lt;script cf-hash='f9e31' type=&quot;text/javascript&quot;&gt;\n/* &lt;![CDATA[ */!function(){try{var t=&quot;currentScript&quot;in document?document.currentScript:function(){for(var t=document.getElementsByTagName(&quot;script&quot;),e=t.length;e--;)if(t[e].getAttribute(&quot;cf-hash&quot;))return t[e]}();if(t&amp;&amp;t.previousSibling){var e,r,n,i,c=t.previousSibling,a=c.getAttribute(&quot;data-cfemail&quot;);if(a){for(e=&quot;&quot;,r=parseInt(a.substr(0,2),16),n=2;a.length-n;n+=2)i=parseInt(a.substr(n,2),16)^r,e+=String.fromCharCode(i);e=document.createTextNode(e),c.parentNode.replaceChild(e,c)}}}catch(u){}}();/* ]]&gt; */&lt;/script&gt;\n Format settings, CABAC : Yes\n Format settings, ReFrames : 3 frames\n Codec ID : avc1\n Codec ID/Info : Advanced Video Coding\n Duration : 2h 3mn\n Bit rate mode : Variable\n Bit rate : 2 217 Kbps\n Maximum bit rate : 40.0 Mbps\n Width : 720 pixels\n Height : 304 pixels\n Display aspect ratio : 2.35:1\n Frame rate mode : Constant\n Frame rate : 23.976 fps\n Color space : YUV\n Chroma subsampling : 4:2:0\n Bit depth : 8 bits\n Scan type : Progressive\n Bits/(Pixel*Frame) : 0.422\n Stream size : 1.92 GiB (87%)\n Writing library : x264 core 125 r2208 d9d2288\n \nAudio\n ID : 2\n Format : AAC\n Format/Info : Advanced Audio Codec\n Format profile : LC\n Codec ID : 40\n Duration : 2h 3mn\n Bit rate mode : Variable\n Bit rate : 321 Kbps\n Maximum bit rate : 379 Kbps\n Channel(s) : 6 channels\n Channel positions : Front: L C R, Side: L R, LFE\n Sampling rate : 48.0 KHz\n Compression mode : Lossy\n Stream size : 285 MiB (13%)\n Language : English\n Encoded date : UTC 2012-08-04 09:44:57\n \nSource : 720p.BluRay.X264-AMIABLE - Thanks!\n &lt;a href=&quot;\nhttp://www.shotpix.com/images/04616702524450417390.png&quot; rel=&quot;nofollow&quot; target=&quot;_NEW&quot;&gt;\nhttp://www.shotpix.com/images/04616702524450417390.png&lt;/a&gt; &lt;a href=&quot;\nhttp://www.shotpix.com/images/83426614679605081897.png&quot; rel=&quot;nofollow&quot; target=&quot;_NEW&quot;&gt;\nhttp://www.shotpix.com/images/83426614679605081897.png&lt;/a&gt; &lt;a href=&quot;\nhttp://www.shotpix.com/images/03200903020231049172.png&quot; rel=&quot;nofollow&quot; target=&quot;_NEW&quot;&gt;\nhttp://www.shotpix.com/images/03200903020231049172.png&lt;/a&gt;\n","torrent":{"xt":"urn:btih:f3334aa2eb56dc659d6121e71881698c74df7ee2","amp;dn":"Jaws+1975+BRRip+x264+AAC-UNiQUE","amp;tr":["udp%3A%2F%2Ftracker.openbittorrent.com%3A80","udp%3A%2F%2Fopen.demonii.com%3A1337","udp%3A%2F%2Ftracker.coppersurfer.tk%3A6969","udp%3A%2F%2Fexodus.desync.com%3A6969"],"infoHash":"f3334aa2eb56dc659d6121e71881698c74df7ee2","infoHashBuffer":{"type":"Buffer","data":[243,51,74,162,235,86,220,101,157,97,33,231,24,129,105,140,116,223,126,226]},"announce":[],"urlList":[]}}